<?xml version="1.0" encoding="UTF-8"?><svg id="a" xmlns="http://www.w3.org/2000/svg" viewBox="0 0 612 792"><defs><style>.b,.c,.d,.e,.f,.g,.h,.i{stroke-miterlimit:10;}.b,.c,.e,.f{stroke:#000;stroke-width:.52px;}.b,.i{fill:#feebb0;}.j{letter-spacing:-.02em;}.k{letter-spacing:-.02em;}.c,.g,.l{fill:#f7a091;}.m{letter-spacing:-.02em;}.n{fill:#d46eab;}.d{fill:none;}.d,.h{stroke:#7f79b8;}.o{letter-spacing:.01em;}.p{fill:#86d2db;}.q{fill:#7f79b8;}.q,.r,.s,.t{font-family:AmericanTypewriterITCPro-Bold, American Typewriter ITC Pro;}.q,.s{font-size:20.27px;}.u{letter-spacing:-.01em;}.v{letter-spacing:-.01em;}.w{fill:#dc88b9;}.x{fill:#7ccfd9;}.e,.h{fill:#fff67e;}.y{letter-spacing:-.03em;}.a`{letter-spacing:-.09em;}.aa{fill:#8079b8;}.f{fill:#96d1af;}.g,.i{stroke:#231f20;stroke-width:.87px;}.ab{letter-spacing:-.04em;}.ac{letter-spacing:-.05em;}.ad{letter-spacing:-.01em;}.h{stroke-width:.99px;}.ae{letter-spacing:0em;}.af{letter-spacing:0em;}.ag{fill:#0188ba;}.r{font-size:14px;}.ah{letter-spacing:-.02em;}.ai{letter-spacing:.03em;}.aj{letter-spacing:0em;}.ak{letter-spacing:0em;}.al{letter-spacing:0em;}.t{fill:#fff4d4;font-size:32.22px;}.am{letter-spacing:-.02em;}.an{letter-spacing:0em;}.ao{letter-spacing:-.03em;}.ap{letter-spacing:-.02em;}.aq{letter-spacing:-.03em;}.ar{letter-spacing:-.02em;}</style></defs><rect class="h" x="57.84" y="74.33" width="500" height="616" rx="41.71" ry="41.71"/><rect class="i" x="93.18" y="103.94" width="429.31" height="558.62" rx="36.8" ry="36.8"/><g><path class="c" d="M332.43,256.56c-11.09-2.8-18.09,9.5-18.38,10.02-.29-.52-7.29-12.82-18.38-10.02-6.3,1.59-10.51,10.95-8.48,18.93,.7,2.77,1.16,4.98,14.56,18.16,4.65,4.57,10.04,7.12,10.04,7.12,.4,.16,.75,.41,.93,.48,.34,.13,.86,.54,1.33,.52,.47,.02,.95-.33,1.33-.52,.18-.09,.53-.33,.93-.48,0,0,5.39-2.54,10.04-7.12,13.41-13.19,13.43-15.22,14.13-17.99,2.02-7.98-1.75-17.52-8.05-19.1Z"/><path class="f" d="M340.93,238.18c-.02-.84-.08-1.57-.12-2.39,0,0-1.72-69.59-1.79-75.3-.07-5.31-3.8-13.02-12.07-20.17-17-14.72-48.56-11.43-61.51,6.51-5.65,7.82-8.87,15.93-8.87,27.37,0,1,1.12,8.65,2.31,10.99,1.85,3.65,4.51,7.47,9.21,6.6,3.83-.7,2.94-5.23,2.94-5.23,0,0,2.28,1.95,4.68,.47,3.34-2.06,4.21-5.05,2.81-7.05-2.9-4.13-3.39-2.83-5.09-7.01-5.2-12.81,15.1-30.53,34.51-18.11,8.51,5.44,11.15,11.89,12.04,19.52,1.45,12.5-1.49,21.09-8.71,28.27-4.08,4.06-10.8,7.54-17.73,9.32-.69,.18-7.49,.31-6.95,9.93,.07,1.31-.48,7.14-.38,10.39,0,.28,.23,4.05,.28,5.79,.02,.73-.17,1.46-.1,2.23,.36,3.93,3.62,7.06,7.57,7.26,2.75,.14,5.22-1.1,6.77-3.1,1.47,1.89,3.76,3.11,6.34,3.11,2.81,0,5.28-1.45,6.72-3.64,1.43,2.19,3.91,3.64,6.72,3.64,2.54,0,4.79-1.18,6.27-3.01,1.63,2.03,4.23,3.26,7.1,2.97,3.71-.37,6.71-3.33,7.14-7.04,.09-.81-.05-1.59-.07-2.35Z"/><g><path class="e" d="M256.56,126.58c-.17,1.26,8.51,.66,13.3,7.11,4.21,5.68,2.61,13.07,5.39,13.64,.88,.18,2.51,.19,6.1-2.38,5.04-3.61,5.06-4.35,5.48-5.76,.92-3.08-3.96-7.37-7.22-9.51-10.01-6.55-22.83-4.61-23.04-3.09Z"/><path class="l" d="M271.11,126.23c-1.6-.37-3.16-.61-4.64-.73,.39,.7,.67,1.52,.99,2.14,.62,1.2,1.08,2.38,1.15,3.72,.01,.23,.02,.29,.04,.56,.51,.47,1.01,1.19,1.45,1.77,.2,.26,.39,.53,.56,.8,.48-.96,.84-1.97,1-3.01,.28-1.77-.2-3.51-.55-5.25Z"/><path class="l" d="M273.64,127.01c.52,3.47,.72,7.57-1.69,10.03,.34,.84,.6,1.67,.8,2.49,1.21-1.38,2.34-2.83,3.26-4.43,1.13-1.95,1.65-4.03,1.86-6.19-1.4-.76-2.81-1.42-4.24-1.9Z"/><path class="l" d="M280.05,130.25c-.12,1.35-.3,2.88-.68,4.3-.4,1.53-.87,2.95-1.69,4.3-1.09,1.82-2.55,3.4-4.12,4.83,.35,1.8,.69,3.17,1.76,3.39,.63,.13,.88,.28,2.64-.44,.42-1.35,.75-3.78,1.08-5.14,.8-3.36,2.06-6.82,2.25-10.29-.29-.22-.97-.76-1.24-.96Z"/><path class="l" d="M285.29,135.3c-.02-.11-.02-.13-.02-.21-.51-.64-1.15-1.45-1.8-1.99-.17,2.07-.16,4.39-.54,6.43-.16,.83-.42,3.55-.6,4.37,2.03-1.42,3.35-2.63,3.95-3.88,.07-1.5-.69-3.18-.98-4.72Z"/><path class="l" d="M261.75,128.03c1.17,.31,2.43,.95,3.68,1.53-.18-.4-.38-1.03-.59-1.4-.52-.94-1.21-1.87-1.8-2.82-1.22,.01-2.32,.09-3.25,.21,.8,.69,1.46,1.56,1.96,2.49Z"/></g><g><path class="b" d="M324.84,146.73l9.42-3.61c1.41-.54,2.94-.65,4.42-.32l2.89,.64c1.36,.3,1.83,2,.82,2.96h0c-1.98,1.89-3.26,4.39-3.63,7.09l-.47,3.43c-.82,1.19-6.17,1.48-9.79-1.57-3.35-2.82-4.53-7.36-3.66-8.62Z"/><circle class="aa" cx="330.97" cy="147.43" r="1.54"/><circle class="aa" cx="335.28" cy="146.09" r=".62"/><circle class="p" cx="333.19" cy="148.97" r=".22"/><circle class="x" cx="336.41" cy="155.35" r=".86"/><circle class="w" cx="336.75" cy="153.48" r=".38"/><circle class="w" cx="338.81" cy="148.33" r=".34"/><circle class="ag" cx="339.66" cy="146.71" r=".51"/><circle class="n" cx="326.77" cy="149.75" r=".28"/><circle class="aa" cx="330.42" cy="152.52" r=".55"/><circle class="w" cx="332.31" cy="152.52" r=".35"/></g><path d="M310.74,224.3c.42,1.43,1.45,2.67,2.81,3.25,1.99,.88,4.64,.27,5.87-1.55,.43-.64,.37-1.38,.65-2.11,.25-.53,.79-.32,1.1,0,1.26,1.34,3.25,1.82,5.02,1.45,1.41-.32,2.63-1.41,3.14-2.75,.26-.68,.28-1.42,.16-2.14-.07-.56-.3-1.09-.27-1.67,0-.22,.24-.45,.47-.39,.38,.11,.67,.28,1.07,.28,2.2,.03,3.52-1.83,1.83-3.6,.84,.78,1.22,2.14,.26,2.99-.7,.62-1.74,.92-2.66,.67-.28-.07-.73-.39-.79,.07-.01,.54,.22,1.08,.3,1.62,.14,.74,.13,1.54-.14,2.25-1.34,3.54-6.06,4-8.54,1.41-.22-.21-.56-.43-.73-.07-.24,.66-.24,1.5-.67,2.12-.42,.65-1.05,1.13-1.73,1.46-2.89,1.45-6.37-.14-7.14-3.28h0Z"/><path d="M296.29,141.78c.09,1.45,.94,2.81,2.23,3.49,.42,.21,.88,.42,1.33,.36,1.2-.21,2.04-1.35,3.23-1.61,.39-.07,.83-.03,1.14,.24,1.39,1.68,3.33,3.58,5.7,2.93,1.93-.43,3.25-2.3,3.11-4.27,.25,2.01-1.08,3.97-3.06,4.46-2.29,.69-4.34-1.03-5.7-2.67-.38-.65-1.2-.55-1.79-.22-.86,.44-1.6,1.19-2.6,1.33-2.01-.06-3.58-2.12-3.57-4.04h0Z"/><path d="M296.63,274.12c-1.03,2.16-.27,5.22,2.07,6.12,1.38,.48,3.61,.38,4.39-1.05,.24-.43,.65-.58,.83,0,.12,.44,.17,.88,.39,1.29,.54,1.04,1.53,1.87,2.64,2.26,1.08,.35,2.46,.45,3.37-.34,.43-.39,.62-.99,.77-1.57,.08-.22,.13-.95,.51-.75,.2,.25,.27,.54,.54,.73,.96,.8,2.49,.46,3.14-.59-.69,1.26-2.66,1.55-3.54,.34-.07-.1-.15-.29-.22-.37-.02-.02-.05-.01-.08,.04-.1,.19-.13,.42-.18,.63-.37,2.33-2.39,2.71-4.37,2.09-1.62-.56-2.96-1.97-3.19-3.7-.03-.07-.07-.21-.14-.21-.2,.11-.33,.46-.51,.66-1.1,1.14-2.99,1.22-4.41,.71-2.41-.98-3.15-4.14-2.01-6.31h0Z"/></g><rect class="g" x="115" y="332.11" width="382.22" height="304" rx="24.44" ry="24.44"/><text class="t" transform="translate(225.82 370.08)"><tspan x="0" y="0">Ca</tspan><tspan class="v" x="41.24" y="0">r</tspan><tspan x="57.67" y="0">e S</tspan><tspan class="m" x="103.43" y="0">h</tspan><tspan x="124.69" y="0">eet</tspan></text><text class="s" transform="translate(271.07 397.63) scale(.91 1)"><tspan x="0" y="0">T</tspan><tspan class="ah" x="14.19" y="0">h</tspan><tspan class="af" x="27.56" y="0">e </tspan><tspan class="ac" x="43.77" y="0">F</tspan><tspan x="57.35" y="0">ae</tspan></text><text class="q" transform="translate(138.1 439.26) scale(.91 1)"><tspan x="0" y="0">Li</tspan><tspan class="j" x="21.08" y="0">k</tspan><tspan x="34.45" y="0">es:</tspan><tspan x="0" y="48.64">Disli</tspan><tspan class="k" x="47.83" y="48.64">k</tspan><tspan x="61.2" y="48.64">es:</tspan><tspan x="0" y="97.28">Thi</tspan><tspan class="y" x="35.26" y="97.28">n</tspan><tspan x="48.43" y="97.28">gs </tspan><tspan class="j" x="76" y="97.28">y</tspan><tspan x="88.97" y="97.28">ou </tspan><tspan x="0" y="121.59">s</tspan><tspan class="j" x="10.94" y="121.59">h</tspan><tspan class="al" x="24.32" y="121.59">ould p</tspan><tspan class="u" x="87.55" y="121.59">r</tspan><tspan x="97.88" y="121.59">ob</tspan><tspan class="ae" x="121.79" y="121.59">a</tspan><tspan class="o" x="133.75" y="121.59">b</tspan><tspan x="146.11" y="121.59">ly </tspan><tspan x="0" y="145.91">k</tspan><tspan class="ah" x="13.78" y="145.91">n</tspan><tspan class="ak" x="27.16" y="145.91">ow:</tspan></text><line class="d" x1="202.11" y1="439.72" x2="476.78" y2="439.72"/><line class="d" x1="138.59" y1="461" x2="476.78" y2="461"/><line class="d" x1="229.37" y1="487.89" x2="476.78" y2="487.89"/><line class="d" x1="138.17" y1="505.44" x2="476.78" y2="505.44"/><line class="d" x1="207.44" y1="585.64" x2="476.78" y2="585.64"/><line class="d" x1="138.17" y1="614.48" x2="476.78" y2="614.48"/><text class="r" transform="translate(222.11 433.82)"><tspan class="ai" x="0" y="0">g</tspan><tspan x="8.54" y="0">ifts</tspan><tspan class="aq" x="33.74" y="0">,</tspan><tspan x="37.8" y="0" xml:space="preserve"> to pl</tspan><tspan class="ar" x="72.8" y="0">a</tspan><tspan x="80.92" y="0">y all d</tspan><tspan class="am" x="124.32" y="0">a</tspan><tspan class="a`" x="132.44" y="0">y</tspan><tspan class="ao" x="140.42" y="0">,</tspan><tspan class="an" x="144.48" y="0" xml:space="preserve"> to pl</tspan><tspan class="am" x="179.48" y="0">a</tspan><tspan class="an" x="187.6" y="0">y tricks</tspan></text><text class="r" transform="translate(248.46 484.11)"><tspan x="0" y="0">w</tspan><tspan class="ar" x="12.88" y="0">h</tspan><tspan x="22.12" y="0">en </tspan><tspan class="ar" x="42.84" y="0">y</tspan><tspan x="51.8" y="0">ou s</tspan><tspan class="am" x="80.08" y="0">a</tspan><tspan x="88.2" y="0">y t</tspan><tspan class="am" x="106.96" y="0">h</tspan><tspan x="116.2" y="0">eir </tspan><tspan class="am" x="139.72" y="0">n</tspan><tspan class="aj" x="148.96" y="0">a</tspan><tspan class="ap" x="157.36" y="0">m</tspan><tspan class="aj" x="170.8" y="0">e</tspan></text><text class="r" transform="translate(272.71 501.95)"><tspan x="0" y="0">w</tspan><tspan class="ar" x="12.88" y="0">h</tspan><tspan x="22.12" y="0">en </tspan><tspan class="ap" x="42.84" y="0">y</tspan><tspan x="51.8" y="0">ou a</tspan><tspan class="ad" x="80.92" y="0">r</tspan><tspan class="aj" x="88.06" y="0">e rude</tspan></text><text class="r" transform="translate(233.2 580.5)"><tspan x="0" y="0">Ne</tspan><tspan class="aq" x="20.16" y="0">v</tspan><tspan x="29.26" y="0">er accept </tspan><tspan class="ab" x="97.58" y="0">f</tspan><tspan class="an" x="103.46" y="0">ood f</tspan><tspan class="ad" x="138.46" y="0">r</tspan><tspan x="145.6" y="0">om t</tspan><tspan class="am" x="176.96" y="0">h</tspan><tspan x="186.2" y="0">em</tspan></text><text class="r" transform="translate(134.11 606.33)"><tspan x="0" y="0">Ne</tspan><tspan class="aq" x="20.16" y="0">v</tspan><tspan x="29.26" y="0">er tell t</tspan><tspan class="ar" x="81.34" y="0">h</tspan><tspan x="90.58" y="0">em </tspan><tspan class="ar" x="115.5" y="0">y</tspan><tspan x="124.46" y="0">our </tspan><tspan class="ad" x="152.46" y="0">r</tspan><tspan class="aj" x="159.6" y="0">eal </tspan><tspan class="am" x="184.24" y="0">n</tspan><tspan class="aj" x="193.48" y="0">a</tspan><tspan class="ap" x="201.88" y="0">m</tspan><tspan x="215.32" y="0">e or s</tspan><tspan class="am" x="252.84" y="0">a</tspan><tspan class="an" x="260.96" y="0">y t</tspan><tspan class="ap" x="279.72" y="0">h</tspan><tspan class="aj" x="288.96" y="0">ank </tspan><tspan class="ap" x="319.76" y="0">y</tspan><tspan x="328.72" y="0">ou</tspan></text></svg>